<?xml version="1.0" standalone="no"?>
<!DOCTYPE svg PUBLIC "-//W3C//DTD SVG 20010904//EN"
 "http://www.w3.org/TR/2001/REC-SVG-20010904/DTD/svg10.dtd">
<svg version="1.0" xmlns="http://www.w3.org/2000/svg"
 width="450.000000pt" height="450.000000pt" viewBox="0 0 450.000000 450.000000"
 preserveAspectRatio="xMidYMid meet">

<g transform="translate(0.000000,450.000000) scale(0.100000,-0.100000)"
fill="#000000" stroke="none">
<path d="M1300 3619 c-32 -13 -68 -47 -86 -81 -14 -27 -20 -158 -7 -158 3 0
128 39 277 86 149 47 316 99 371 116 55 16 106 34 115 38 21 13 -638 11 -670
-1z"/>
<path d="M2087 3611 c4 -17 -4 -22 -48 -36 -80 -23 -155 -70 -185 -115 -25
-37 -26 -46 -21 -113 5 -65 57 -245 101 -347 l14 -35 11 28 c6 16 12 38 13 50
0 12 4 2 8 -23 l7 -45 3 45 c1 25 4 38 7 29 3 -12 21 -18 65 -23 79 -8 936 -8
1100 1 l126 6 4 169 c1 93 1 209 -2 258 -5 77 -9 93 -30 116 -51 54 -45 54
-634 54 -534 0 -544 0 -539 -19z m-127 -586 c0 -8 -4 -15 -10 -15 -5 0 -10 7
-10 15 0 8 5 15 10 15 6 0 10 -7 10 -15z"/>
<path d="M1263 3329 l-63 -22 0 -136 c0 -135 0 -137 23 -138 12 0 83 -3 158
-7 l136 -7 16 38 c12 28 14 31 10 11 -3 -17 -1 -28 6 -28 6 0 11 -8 11 -17 0
-15 2 -16 10 -3 11 17 11 17 35 -38 32 -74 26 -40 -16 94 -47 147 -76 208
-113 244 -38 34 -128 38 -213 9z"/>
<path d="M1532 3020 c0 -14 2 -19 5 -12 2 6 2 18 0 25 -3 6 -5 1 -5 -13z"/>
<path d="M1962 2910 c0 -14 2 -19 5 -12 2 6 2 18 0 25 -3 6 -5 1 -5 -13z"/>
<path d="M3250 2780 c-50 -26 -260 -104 -350 -129 -222 -62 -433 -91 -670 -91
-88 0 -160 -4 -160 -8 0 -5 6 -28 14 -53 8 -24 45 -138 81 -254 141 -445 151
-465 235 -465 33 0 342 91 474 140 158 58 242 123 297 231 30 60 62 181 74
281 5 48 10 57 28 60 21 3 22 7 25 156 1 83 -1 152 -5 152 -5 -1 -24 -9 -43
-20z"/>
<path d="M1202 2181 l3 -589 23 -25 c39 -42 81 -47 379 -47 l279 0 48 30 c68
44 91 98 76 182 -9 52 -224 748 -258 839 -9 22 -20 28 -74 38 -148 29 -438
126 -454 152 -22 36 -24 -33 -22 -580z"/>
<path d="M3235 1889 c-27 -10 -241 -79 -475 -153 -234 -74 -479 -152 -545
-173 l-120 -38 515 -3 c350 -2 532 0 567 8 60 13 98 46 113 99 11 42 14 268 3
274 -5 2 -30 -4 -58 -14z"/>
<path d="M2274 1449 c-3 -6 0 -17 8 -25 13 -13 16 -13 28 1 12 14 11 18 -1 26
-19 12 -26 11 -35 -2z"/>
<path d="M1654 1390 c-81 -33 -84 -164 -4 -205 106 -55 214 62 153 165 -27 46
-92 63 -149 40z m90 -16 c22 -21 22 -141 0 -172 -21 -30 -59 -29 -80 3 -20 30
-16 143 5 169 17 20 55 21 75 0z"/>
<path d="M1960 1396 c0 -1 -1 -50 -3 -111 l-2 -110 33 0 c25 0 31 3 26 15 -3
8 -5 58 -4 111 l1 95 -26 0 c-14 0 -25 0 -25 0z"/>
<path d="M2048 1383 c30 -21 28 -58 -5 -80 l-26 -17 24 -6 c19 -5 25 -13 27
-44 3 -31 0 -38 -17 -43 -12 -3 -21 -10 -21 -15 0 -6 7 -7 16 -4 9 3 22 6 30
6 19 0 54 36 54 55 0 8 -9 24 -21 36 -19 19 -19 22 -5 38 32 35 16 69 -40 81
-37 8 -38 8 -16 -7z"/>
<path d="M2265 1286 l0 -111 33 0 c23 0 31 4 27 13 -3 8 -5 58 -5 111 l0 98
-27 0 -28 0 0 -111z"/>
<path d="M2455 1392 c-3 -3 -5 -17 -4 -31 0 -26 0 -26 11 -3 6 12 15 22 20 22
4 0 8 4 8 8 0 9 -27 12 -35 4z"/>
<path d="M2520 1288 l0 -108 28 0 27 0 0 110 0 110 -27 -2 -28 -2 0 -108z"/>
<path d="M2615 1390 c-4 -6 -1 -10 5 -10 6 0 15 -10 20 -22 9 -22 9 -22 9 3 1
27 -23 47 -34 29z"/>
<path d="M2780 1300 c0 -54 -2 -105 -5 -112 -6 -16 45 -21 121 -12 36 4 43 9
47 32 4 23 3 24 -7 10 -17 -23 -64 -40 -87 -33 -26 8 -28 95 -3 95 9 0 18 -9
21 -20 9 -35 18 -21 19 30 1 27 -3 47 -8 44 -4 -3 -8 -11 -8 -19 0 -16 -27
-28 -35 -14 -4 5 -5 28 -3 52 2 39 1 42 -25 44 l-27 2 0 -99z"/>
<path d="M2886 1384 c10 -7 25 -18 32 -24 9 -8 12 -6 12 8 0 14 -9 21 -32 24
-28 5 -29 4 -12 -8z"/>
<path d="M3090 1396 c-1 -1 -2 -49 -3 -109 -2 -89 0 -107 13 -107 8 0 26 -3
40 -6 21 -6 23 -4 13 7 -14 14 -18 99 -5 99 6 0 31 -36 57 -81 8 -16 85 -33
85 -19 0 3 -10 16 -23 30 -12 14 -36 42 -52 64 l-29 38 44 39 c25 21 40 39 34
39 -6 0 -33 -20 -60 -45 -27 -25 -52 -45 -57 -45 -5 0 -7 21 -6 48 3 45 2 47
-24 48 -15 1 -27 1 -27 0z"/>
<path d="M1278 1383 c9 -3 12 -42 12 -143 0 -101 -3 -140 -12 -143 -7 -3 35
-6 94 -6 l106 -1 11 31 c6 18 11 33 11 35 0 1 -13 -11 -29 -27 -24 -23 -38
-29 -73 -29 -24 0 -49 5 -56 12 -8 8 -12 51 -12 129 0 94 3 121 16 133 14 15
11 16 -33 15 -26 0 -42 -3 -35 -6z"/>
<path d="M1615 1100 c-4 -7 280 -10 844 -10 561 0 851 3 851 10 0 14 -1686 14
-1695 0z"/>
<path d="M1270 1022 c1 -4 7 -18 15 -32 8 -14 14 -35 15 -47 0 -13 6 -23 14
-23 27 0 0 92 -30 104 -8 3 -14 2 -14 -2z"/>
<path d="M3290 1020 c0 -5 5 -10 11 -10 5 0 7 5 4 10 -3 6 -8 10 -11 10 -2 0
-4 -4 -4 -10z"/>
<path d="M1760 970 c0 -27 5 -50 10 -50 6 0 10 23 10 50 0 28 -4 50 -10 50 -5
0 -10 -22 -10 -50z"/>
<path d="M2220 1001 c-14 -28 -12 -57 5 -71 21 -17 28 -8 17 21 -5 13 -6 34
-1 47 10 27 -6 30 -21 3z"/>
<path d="M2420 1009 c0 -5 5 -7 10 -4 6 3 10 8 10 11 0 2 -4 4 -10 4 -5 0 -10
-5 -10 -11z"/>
<path d="M2960 980 c0 -22 0 -43 -1 -47 0 -4 4 -9 10 -11 7 -2 11 15 11 47 0
28 -4 51 -10 51 -5 0 -10 -18 -10 -40z"/>
<path d="M1415 981 c-3 -5 -1 -12 5 -16 5 -3 10 1 10 9 0 18 -6 21 -15 7z"/>
<path d="M1448 955 c6 -48 24 -57 20 -9 -2 20 -8 39 -14 41 -6 2 -8 -10 -6
-32z"/>
<path d="M1557 955 c-12 -25 -13 -35 -4 -35 16 1 49 70 33 70 -7 0 -20 -16
-29 -35z"/>
<path d="M1665 955 c0 -19 3 -35 8 -35 4 0 7 16 7 35 0 19 -3 35 -7 35 -5 0
-8 -16 -8 -35z"/>
<path d="M1850 955 c0 -19 5 -35 10 -35 6 0 10 16 10 35 0 19 -4 35 -10 35 -5
0 -10 -16 -10 -35z"/>
<path d="M1940 956 c0 -20 5 -36 10 -36 6 0 10 14 10 30 0 20 5 30 15 30 10 0
15 -10 15 -30 0 -16 5 -30 11 -30 6 0 9 14 7 33 -3 28 -7 32 -35 35 -32 3 -33
2 -33 -32z"/>
<path d="M2028 955 c2 -19 8 -35 13 -35 5 0 9 16 9 35 0 22 -5 35 -13 35 -9 0
-12 -11 -9 -35z"/>
<path d="M2380 971 c-11 -21 -4 -51 12 -51 6 0 7 7 4 16 -3 8 -1 24 4 35 7 12
7 19 1 19 -6 0 -15 -9 -21 -19z"/>
<path d="M2420 955 c0 -36 13 -47 24 -19 5 14 -9 54 -19 54 -3 0 -5 -16 -5
-35z"/>
<path d="M2522 955 c-15 -24 -18 -35 -9 -35 11 0 47 49 47 64 0 16 -17 2 -38
-29z"/>
<path d="M2630 955 c0 -22 5 -35 13 -35 9 0 12 11 9 35 -2 19 -8 35 -13 35 -5
0 -9 -16 -9 -35z"/>
<path d="M2670 955 c0 -21 5 -35 13 -35 7 0 12 14 12 35 0 21 -5 35 -12 35 -8
0 -13 -14 -13 -35z"/>
<path d="M2770 955 c0 -19 5 -35 10 -35 6 0 10 14 10 30 0 20 5 30 15 30 10 0
15 -10 15 -30 0 -16 5 -30 10 -30 6 0 10 16 10 35 0 33 -2 35 -35 35 -33 0
-35 -2 -35 -35z"/>
<path d="M2858 955 c2 -19 8 -35 13 -35 5 0 9 16 9 35 0 22 -5 35 -13 35 -9 0
-12 -11 -9 -35z"/>
<path d="M3051 976 c-20 -24 -4 -56 27 -55 17 1 21 3 10 6 -19 5 -26 53 -7 53
5 0 7 -4 4 -10 -3 -5 -1 -10 5 -10 17 0 6 24 -12 28 -8 2 -20 -4 -27 -12z"/>
<path d="M3170 955 c0 -41 17 -47 22 -7 2 15 8 27 15 27 6 0 15 3 19 8 4 4 -7
7 -24 7 -30 0 -32 -2 -32 -35z"/>
<path d="M3290 955 c0 -19 5 -35 10 -35 6 0 10 16 10 35 0 19 -4 35 -10 35 -5
0 -10 -16 -10 -35z"/>
<path d="M1416 941 c-4 -7 -5 -15 -2 -18 9 -9 19 4 14 18 -4 11 -6 11 -12 0z"/>
</g>
</svg>
